<svg xmlns="http://www.w3.org/2000/svg" xmlns:xlink="http://www.w3.org/1999/xlink" width="41" height="34" viewBox="0 0 41 34"><defs><path id="7f35a" d="M687.356 982.9h26.908a4.036 4.036 0 0 1 4.036 4.036v17.49c0 .471-.081.924-.23 1.345h.23v2.69h-4.036v-21.525h-26.908v21.526h-4.036v-2.69h.23a4.03 4.03 0 0 1-.23-1.346v-17.49a4.036 4.036 0 0 1 4.036-4.036zm-4.036 28.252h34.98a2.691 2.691 0 0 1 2.69 2.691c0 1.486-2.55 2.691-4.036 2.691h-32.288c-1.486 0-4.036-1.205-4.036-2.69a2.691 2.691 0 0 1 2.69-2.692zm12.109 3.364c0 .371.602.673 1.345.673h8.072c.743 0 1.346-.302 1.346-.673 0-.372-.603-.673-1.346-.673h-8.072c-.743 0-1.345.301-1.345.673zm-3.652-15.832l1.894-1.903a1.336 1.336 0 0 1 1.894 0l2.483 2.494 8.002-8.038a1.335 1.335 0 0 1 1.894 0l1.895 1.902a1.35 1.35 0 0 1 0 1.903l-10.418 10.464a1.335 1.335 0 0 1-1.65.194 1.335 1.335 0 0 1-1.259-.357l-4.735-4.756a1.35 1.35 0 0 1 0-1.903z"/></defs><g><g transform="translate(-680 -983)"><use fill="#fed136" xlink:href="#7f35a"/></g></g></svg>