<svg xmlns="http://www.w3.org/2000/svg" xmlns:xlink="http://www.w3.org/1999/xlink" width="40" height="39" viewBox="0 0 40 39"><defs><path id="d338a" d="M350.755 992.89c0-1.902 1.54-3.442 3.442-3.442h3.883c.061-.221.151-.438.271-.646l4.13-7.154a2.753 2.753 0 1 1 4.77 2.754l-2.914 5.046h11.382l-2.913-5.046a2.753 2.753 0 0 1 4.77-2.754l4.13 7.154c.119.208.209.425.27.646h3.884a3.442 3.442 0 1 1 0 6.883h-31.663a3.442 3.442 0 0 1-3.442-3.442zm34.522 25.468H354.78l-1.191-20.65h32.88zm-16.625-13.767v8.26a1.377 1.377 0 0 0 2.753 0v-8.26a1.376 1.376 0 0 0-2.753 0zm8.26 0v8.26a1.377 1.377 0 0 0 2.753 0v-8.26a1.376 1.376 0 0 0-2.754 0zm-16.52 0v8.26a1.377 1.377 0 1 0 2.753 0v-8.26a1.376 1.376 0 0 0-2.753 0z"/></defs><g><g transform="translate(-350 -980)"><use fill="#fed136" xlink:href="#d338a"/></g></g></svg>