<svg xmlns="http://www.w3.org/2000/svg" xmlns:xlink="http://www.w3.org/1999/xlink" width="29" height="38" viewBox="0 0 29 38"><defs><path id="brtva" d="M1029.685 978.633c5.154 0 9.333 3.656 9.333 8.166v9.333h1.166a3.5 3.5 0 0 1 3.5 3.5v12.833a3.5 3.5 0 0 1-3.5 3.5h-20.999a3.5 3.5 0 0 1-3.5-3.5v-12.833a3.5 3.5 0 0 1 3.5-3.5h1.167V986.8c0-4.51 4.178-8.166 9.333-8.166zm-4.667 8.166v8.166c0 .41.094.802.266 1.167h8.802c.172-.365.265-.758.265-1.167V986.8c0-1.932-2.089-3.5-4.666-3.5-2.577 0-4.667 1.568-4.667 3.5zm2.334 23.332a2.333 2.333 0 1 0 4.666 0v-1.79a4.666 4.666 0 1 0-4.666 0z"/></defs><g><g transform="translate(-1015 -978)"><use fill="#fed136" xlink:href="#brtva"/></g></g></svg>